<?xml version="1.0" encoding="UTF-8" standalone="no"?>
<!DOCTYPE svg PUBLIC "-//W3C//DTD SVG 1.1//EN" "http://www.w3.org/Graphics/SVG/1.1/DTD/svg11.dtd">
<svg xmlns="http://www.w3.org/2000/svg" version="1.1" viewBox="0.00 0.00 1024.00 1024.00">
<path fill="#000000" d="
  M 656.85 593.83
  Q 771.35 631.17 853.12 715.62
  C 925.01 789.84 970.99 884.71 983.87 986.86
  Q 983.96 987.58 983.23 987.58
  L 924.50 987.59
  Q 923.94 987.59 923.86 987.03
  C 906.71 869.59 841.19 767.07 743.04 700.79
  C 580.13 590.78 356.51 612.40 217.32 753.19
  Q 121.21 850.39 99.91 987.00
  Q 99.82 987.58 99.24 987.58
  L 40.55 987.59
  Q 40.07 987.59 40.13 987.11
  C 63.27 803.75 191.44 650.25 367.35 593.81
  A 0.30 0.30 0.0 0 0 367.40 593.27
  C 207.97 502.69 165.52 295.05 277.89 150.39
  C 350.30 57.17 471.89 16.85 586.07 45.62
  C 663.98 65.25 733.79 119.29 772.11 189.82
  C 850.58 334.22 800.39 511.68 656.78 593.18
  Q 656.07 593.58 656.85 593.83
  Z
  M 750.01 333.57
  A 237.99 237.99 0.0 0 0 512.02 95.58
  A 237.99 237.99 0.0 0 0 274.03 333.57
  A 237.99 237.99 0.0 0 0 512.02 571.56
  A 237.99 237.99 0.0 0 0 750.01 333.57
  Z"
/>
</svg>
