<?xml version="1.0"?>
<svg xmlns="http://www.w3.org/2000/svg" viewBox="0 0 16 16">
    <path style="line-height:normal;text-indent:0;text-align:start;text-decoration-line:none;text-decoration-style:solid;text-decoration-color:#000;text-transform:none;block-progression:tb;isolation:auto;mix-blend-mode:normal" d="M 2.5 1 C 1.6774686 1 1 1.6774686 1 2.5 L 1 12.5 C 1 13.322531 1.6774686 14 2.5 14 L 12.5 14 C 13.322531 14 14 13.322531 14 12.5 L 14 12 L 14 11 L 14 10 L 13 11 L 13 12 L 13 12.5 C 13 12.781469 12.781469 13 12.5 13 L 2.5 13 C 2.2185314 13 2 12.781469 2 12.5 L 2 2.5 C 2 2.2185314 2.2185314 2 2.5 2 L 12.5 2 C 12.781469 2 13 2.2185314 13 2.5 L 13 4 L 14 5 L 14 3 L 14 2.5 C 14 1.6774686 13.322531 1 12.5 1 L 2.5 1 z M 10.728516 4.0214844 L 10.021484 4.7285156 L 12.292969 7 L 5 7 L 5 8 L 12.292969 8 L 10.021484 10.271484 L 10.728516 10.978516 L 14.207031 7.5 L 10.728516 4.0214844 z" font-weight="400" font-family="sans-serif" white-space="normal" overflow="visible"/>
</svg>
