<?xml version="1.0" encoding="UTF-8" standalone="no"?>
<!DOCTYPE svg PUBLIC "-//W3C//DTD SVG 1.1//EN" "http://www.w3.org/Graphics/SVG/1.1/DTD/svg11.dtd">
<svg xmlns="http://www.w3.org/2000/svg" version="1.1" viewBox="0.00 0.00 469.00 137.00">
<path fill="#a0e4b0" d="
  M 96.53 35.77
  A 0.46 0.45 90.0 0 0 96.08 36.23
  L 96.01 94.23
  A 0.43 0.43 0.0 0 1 95.26 94.51
  L 45.27 36.39
  Q 44.85 35.90 44.19 35.89
  L 30.77 35.76
  Q 29.78 35.75 29.78 36.74
  L 29.85 103.23
  A 0.89 0.88 0.3 0 0 30.73 104.11
  L 38.45 104.13
  A 1.08 1.07 -90.0 0 0 39.52 103.05
  L 39.47 76.00
  A 0.37 0.37 0.0 0 1 40.08 75.72
  Q 42.89 78.15 45.06 81.00
  C 47.03 83.58 49.26 85.01 49.27 89.00
  Q 49.28 101.19 49.20 113.03
  A 0.95 0.95 0.0 0 1 48.25 113.98
  L 21.27 114.05
  Q 19.99 114.05 19.99 112.77
  L 19.99 26.47
  A 0.41 0.41 0.0 0 1 20.40 26.06
  L 48.72 26.07
  Q 49.31 26.07 49.70 26.52
  L 84.99 67.46
  A 0.67 0.67 0.0 0 0 86.17 67.02
  L 86.10 27.29
  A 1.24 1.23 90.0 0 1 87.33 26.05
  L 114.76 26.02
  A 0.99 0.99 0.0 0 1 115.75 27.01
  L 115.76 113.24
  A 0.74 0.73 -90.0 0 1 115.03 113.98
  Q 102.26 114.03 89.50 113.99
  C 87.27 113.98 86.19 114.01 84.64 112.20
  Q 62.98 86.72 41.01 61.50
  C 38.49 58.60 39.16 49.94 39.48 46.71
  Q 39.67 44.73 40.97 46.24
  L 90.03 103.23
  A 2.61 2.61 0.0 0 0 92.01 104.14
  L 105.14 104.11
  A 0.75 0.75 0.0 0 0 105.89 103.36
  L 105.82 36.29
  A 0.53 0.52 0.0 0 0 105.29 35.77
  L 96.53 35.77
  Z"
/>
<rect fill="#111111" x="335.02" y="33.02" width="14.06" height="74.98" rx="0.28"/>
<circle fill="#111111" cx="264.07" cy="42.21" r="8.07"/>
<path fill="#111111" d="
  M 294.79 83.27
  L 294.78 107.48
  Q 294.78 108.00 294.27 108.00
  L 280.75 108.00
  Q 280.25 108.00 280.25 107.50
  L 280.25 38.01
  Q 280.25 37.52 280.74 37.52
  Q 292.63 37.47 304.45 37.50
  Q 314.24 37.52 318.32 39.11
  C 327.86 42.82 332.95 53.97 331.51 63.82
  C 329.83 75.28 321.45 82.47 309.74 82.63
  Q 302.53 82.73 295.28 82.77
  Q 294.79 82.78 294.79 83.27
  Z
  M 294.79 50.00
  L 294.79 70.24
  A 0.27 0.27 0.0 0 0 295.06 70.51
  L 307.68 70.51
  A 10.03 9.76 -0.0 0 0 317.71 60.75
  L 317.71 59.49
  A 10.03 9.76 -0.0 0 0 307.68 49.73
  L 295.06 49.73
  A 0.27 0.27 0.0 0 0 294.79 50.00
  Z"
/>
<path fill="#111111" d="
  M 187.86 62.25
  L 188.27 58.25
  Q 188.32 57.77 188.81 57.76
  C 191.12 57.76 193.83 58.11 195.80 57.00
  C 200.73 54.24 199.62 46.93 199.64 42.09
  Q 199.64 41.50 200.23 41.50
  L 211.76 41.50
  Q 212.26 41.50 212.26 42.01
  L 212.22 57.13
  A 0.63 0.63 0.0 0 0 212.85 57.76
  L 222.02 57.76
  Q 222.52 57.76 222.52 58.27
  L 222.51 67.99
  Q 222.51 68.49 222.01 68.49
  L 212.79 68.49
  Q 212.29 68.49 212.28 68.99
  Q 212.07 87.01 212.32 92.53
  C 212.57 97.74 218.28 97.34 221.98 97.23
  Q 222.51 97.21 222.52 97.75
  L 222.53 107.47
  Q 222.53 107.97 222.04 107.98
  C 209.74 108.19 198.42 108.37 198.22 92.50
  Q 198.07 80.77 198.04 69.03
  Q 198.04 68.50 197.51 68.49
  L 188.91 68.48
  Q 188.33 68.48 188.28 67.90
  L 187.83 63.12
  Q 187.82 63.03 187.73 63.02
  Q 187.56 63.00 187.43 63.00
  Q 187.38 63.00 187.38 63.05
  L 187.40 107.43
  Q 187.40 108.00 186.82 108.00
  L 174.66 107.98
  Q 174.09 107.98 174.06 107.41
  L 173.88 102.80
  Q 173.86 102.18 173.41 102.61
  Q 163.81 111.90 150.45 107.85
  C 142.07 105.31 139.02 98.08 139.20 89.88
  C 139.42 79.35 139.22 68.79 139.29 58.25
  Q 139.29 57.76 139.78 57.76
  L 152.74 57.75
  Q 153.27 57.75 153.27 58.29
  Q 153.33 73.66 153.29 89.01
  C 153.27 96.08 159.76 98.89 165.78 97.10
  Q 173.34 94.85 173.38 84.98
  Q 173.44 71.67 173.45 58.31
  Q 173.45 57.76 174.00 57.76
  L 186.77 57.76
  A 0.53 0.53 0.0 0 1 187.30 58.27
  L 187.42 62.24
  A 0.22 0.22 0.0 0 0 187.86 62.25
  Z"
/>
<path fill="#111111" d="
  M 423.38 74.16
  C 430.43 77.61 440.58 76.97 446.07 84.33
  C 450.27 89.96 449.88 98.94 444.75 103.77
  Q 441.67 106.67 435.62 108.13
  C 425.32 110.61 409.56 108.00 407.00 95.42
  Q 406.90 94.96 407.35 94.84
  L 417.75 91.97
  Q 418.29 91.82 418.48 92.34
  Q 421.37 100.04 430.26 98.96
  C 433.19 98.60 435.61 97.43 435.45 94.06
  C 434.92 83.53 404.10 90.41 408.28 68.50
  C 410.76 55.46 430.42 54.99 439.45 59.28
  Q 445.41 62.11 447.00 69.56
  Q 447.10 70.03 446.64 70.14
  L 437.13 72.35
  Q 436.63 72.46 436.40 72.00
  Q 432.89 64.89 425.36 66.41
  C 421.02 67.29 418.26 71.66 423.38 74.16
  Z"
/>
<path fill="#111111" d="
  M 240.04 65.06
  Q 245.86 57.74 255.31 57.37
  Q 255.96 57.34 255.96 57.99
  L 255.94 69.21
  A 0.61 0.61 0.0 0 1 255.36 69.82
  C 246.38 70.30 240.43 72.14 240.35 82.76
  Q 240.25 95.09 240.27 107.46
  Q 240.27 107.99 239.74 107.99
  L 226.74 108.00
  Q 226.23 108.00 226.23 107.49
  L 226.25 58.26
  Q 226.25 57.76 226.74 57.76
  L 238.94 57.76
  Q 239.60 57.76 239.60 58.42
  L 239.60 64.90
  Q 239.60 65.61 240.04 65.06
  Z"
/>
<rect fill="#111111" x="257.02" y="57.76" width="14.02" height="50.24" rx="0.45"/>
<path fill="#111111" d="
  M 389.51 102.59
  Q 380.15 111.82 367.00 107.82
  Q 355.76 104.40 355.61 92.22
  Q 355.40 75.30 355.45 58.32
  Q 355.46 57.77 356.00 57.77
  L 368.97 57.76
  Q 369.47 57.76 369.47 58.25
  Q 369.43 74.47 369.52 90.64
  Q 369.53 92.40 370.99 94.31
  C 374.08 98.36 380.91 98.52 384.79 96.07
  C 389.65 92.99 389.49 87.90 389.51 81.62
  Q 389.55 69.95 389.54 58.25
  Q 389.54 57.77 390.03 57.77
  L 403.01 57.76
  Q 403.51 57.76 403.51 58.26
  L 403.51 107.49
  Q 403.51 107.99 403.01 107.99
  L 390.76 108.00
  A 0.52 0.51 88.2 0 1 390.25 107.51
  L 389.97 102.77
  Q 389.94 102.17 389.51 102.59
  Z"
/>
</svg>
