<?xml version="1.0" encoding="UTF-8" standalone="no"?>
<!DOCTYPE svg PUBLIC "-//W3C//DTD SVG 1.1//EN" "http://www.w3.org/Graphics/SVG/1.1/DTD/svg11.dtd">
<svg xmlns="http://www.w3.org/2000/svg" version="1.1" viewBox="0.00 0.00 385.00 356.00">
<path fill="#a0e4b0" d="
  M 320.36 296.47
  C 320.83 295.68 321.11 294.49 321.11 293.46
  Q 320.99 176.83 320.79 60.55
  A 2.05 2.05 0.0 0 0 318.74 58.50
  L 288.50 58.50
  A 1.76 1.75 0.0 0 0 286.74 60.25
  L 286.46 262.99
  A 1.36 1.35 -71.7 0 1 284.30 264.08
  Q 283.46 263.46 282.34 262.15
  Q 152.86 111.18 109.51 60.94
  C 108.12 59.33 106.26 58.92 104.00 58.92
  Q 81.36 58.86 58.74 58.44
  C 54.69 58.37 54.94 61.62 54.94 64.97
  Q 54.97 179.36 55.15 293.17
  Q 55.16 297.51 59.50 297.51
  L 85.43 297.49
  A 3.67 3.67 0.0 0 0 89.10 293.82
  L 89.05 199.52
  A 1.30 1.28 -19.5 0 1 89.54 198.51
  Q 90.47 197.78 91.51 198.72
  C 99.94 206.39 107.07 215.14 114.48 223.97
  Q 119.21 229.60 120.83 233.40
  Q 123.19 238.94 123.19 244.75
  Q 123.24 286.50 122.92 328.27
  Q 122.89 331.98 119.18 331.98
  Q 72.12 332.01 25.50 332.16
  Q 20.83 332.17 20.83 327.50
  Q 20.87 177.00 20.77 26.59
  Q 20.77 24.80 22.55 24.80
  Q 72.00 24.85 121.50 24.80
  Q 123.42 24.80 124.94 26.56
  Q 186.37 97.88 247.83 169.17
  C 249.58 171.20 252.14 169.97 252.14 167.50
  Q 252.20 98.63 252.08 29.02
  A 4.17 4.16 89.9 0 1 256.23 24.84
  L 351.49 24.48
  Q 355.50 24.47 355.50 28.49
  L 355.50 328.75
  Q 355.50 331.93 352.32 331.94
  Q 308.37 332.00 264.25 331.93
  C 259.96 331.92 255.32 332.12 251.55 329.69
  C 249.16 328.14 246.61 325.60 244.48 323.10
  Q 171.18 237.16 97.20 151.81
  C 95.32 149.64 93.30 147.61 92.14 145.01
  Q 89.23 138.46 88.63 131.26
  Q 87.21 114.11 88.95 96.99
  Q 89.16 95.00 89.84 93.98
  A 1.92 1.92 0.0 0 1 92.89 93.79
  Q 179.47 194.30 265.80 294.44
  C 267.97 296.96 270.50 297.47 274.01 297.48
  Q 296.46 297.53 318.61 297.47
  A 2.03 2.03 0.0 0 0 320.36 296.47
  Z"
/>
</svg>
